<?xml version="1.0" encoding="utf-8"?>
<!-- Generator: Adobe Illustrator 17.0.0, SVG Export Plug-In . SVG Version: 6.00 Build 0)  -->
<!DOCTYPE svg PUBLIC "-//W3C//DTD SVG 1.1//EN" "http://www.w3.org/Graphics/SVG/1.1/DTD/svg11.dtd">
<svg version="1.1" id="Layer_1" xmlns="http://www.w3.org/2000/svg" xmlns:xlink="http://www.w3.org/1999/xlink" x="0px" y="0px"
	 width="792px" height="612px" viewBox="0 0 792 612" enable-background="new 0 0 792 612" xml:space="preserve">
<g>
	<path fill="#E60000" d="M437.729,233.388c11.064,0.43,10.634-2.363,7.913-3.724c-2.721-1.36-16.541-2.291-16.541-2.291
		c-7.518-1.002-8.235,1.002-8.593,3.795C420.15,233.961,426.667,232.959,437.729,233.388z"/>
	<path fill="#E60000" d="M247.967,407.147c-0.356-1.84,1.602-4.51,2.967-6.943c1.365-2.433,6.172-9.139,9.966-10.386
		c3.793-1.246,7.779,0.771,12.348,2.314c4.57,1.543,7.596,7.596,7.893,8.486c0.297,0.89,1.424,0.712,3.145,0.712
		c1.721,0,3.204,2.255,5.579,2.215c2.373-0.04,4.866-0.078,8.842-0.969c4.053-0.907,8.295,1.148,12.213,0.695
		c-0.344-2.464,0.97-8.069-0.106-9.959c-4.766-8.373-14.713-10.106-21.586-16.018c-3.506-3.015-5.322-6.429-5.95-10.976
		c-0.257-1.856,0.694-8.726-2.435-8.726c-0.01,0-6.945,0-9.139,0c-2.196,0-2.493,2.611-2.493,2.611s-1.009,0.534-3.561,0
		c-2.552-0.534-4.095-3.323-4.154-6.172c-0.059-2.849,0.119-17.804,0-20.712c-0.119-2.908-0.237-3.62-0.534-4.51
		c-0.297-0.89,0.534-0.712,0.594-1.543c0.519-7.286-0.018-14.472,2.203-21.565c1.757-5.61,5.004-10.914,5.77-16.774
		c1.566-11.991,5.762-23.293,9.834-34.607c1.878-5.219,11.734-4.769,15.935-6.235c7.311-2.551,5.781-10.919,11.841-15.393
		c10.438-7.707,24.356-8.228,36.193-12.663c3.326-1.247,5.225-4.63,5.581-6.47c0.356-1.84,2.018-6.409,2.611-7.834
		c0.593-1.424-0.297-2.374-0.297-2.374c0.771-4.688,5.579-17.744,19.703-22.077c14.124-4.332,25.281,1.484,32.403,8.368
		c7.122,6.884,8.071,19.347,8.071,19.347c4.035,3.501,3.679,5.994,2.374,7.418c-1.305,1.424-11.038,0.772-13.531,3.086
		c-2.492,2.315,0.475,8.19,1.128,10.386c0.653,2.196-2.314,1.78-3.977,1.662c-1.661-0.119-1.305,2.789-1.365,3.501
		c-0.059,0.712-0.771,1.958-1.128,2.077c-0.356,0.119-0.831-0.712-0.653,0.059c0.178,0.771-1.012,1.864-1.012,1.864
		s10.258-0.424,11.105-0.424c0.848,0,1.696-1.526,2.968-3.985c1.271-2.458,3.56-1.696,3.56-1.696s2.289-3.222,2.883-5.087
		c0.593-1.865-0.594-1.695,0-3.73c0.593-2.035,8.308-1.272,9.58-1.187c1.272,0.085,21.194,2.119,23.907,2.514
		c2.712,0.394,3.645,2.234,3.73,3.59c0.085,1.356,1.357,1.356,4.663,2.289c3.306,0.932,3.306,1.78,3.306,1.78
		s22.974,0.17,30.774,0.678c7.799,0.509,37.302,1.611,37.302,1.611c3.221-6.189,7.206-10.343,9.156-9.919
		c1.95,0.424,2.119,2.798,2.119,2.798v10.512h29.333l0.847,0.763h1.865l0.933-0.763h3.928
		c-27.372-72.03-97.035-123.225-178.667-123.225c-105.532,0-191.082,85.55-191.082,191.082c0,42.401,13.82,81.57,37.188,113.267
		c2.81-3.846,5.493-7.313,5.861-8.019C249.213,410.53,248.323,408.987,247.967,407.147z"/>
	<path fill="#E60000" d="M423.931,251.29c-0.731,1.463,0.122,4.146,3.476,4.024c3.353-0.122,5.67-0.975,5.67-3.78
		c0-2.805-1.89-3.251-1.89-3.251C425.883,247.429,424.664,249.827,423.931,251.29z"/>
	<path fill="#E60000" d="M528.997,237.752h5.897c0,0,1.436-0.154,1.436-1.949c0-1.795,0-3.18,0-3.18h-1.744v-2.359
		c0,0,0.667-2.308-1.077-1.026C531.767,230.521,527.459,237.24,528.997,237.752z"/>
	<path fill="#E60000" d="M411.604,272.9c2.026,0.701,2.882,3.505,5.063,5.14c2.181,1.636,5.763,4.673,6.075,5.841
		c0.311,1.168,1.168-0.312,2.103-1.869s4.05-3.271,4.05-3.271c0.234-3.894,3.661-5.296,4.984-6.309
		c1.324-1.013,2.181-3.271,2.181-3.271h-2.982c0,0,0-7.165,0-10.125c0-2.959-3.093-2.726-3.093-2.726l-6.296-0.004
		c-2.635,0-0.48,1.951-0.247,3.899c0.233,1.947-1.168,2.414-2.492,2.492c-1.324,0.078-0.311,1.168-0.389,2.57
		c-0.078,1.402-3.115,1.246-3.972,2.882c-0.857,1.636-2.103,1.09-3.349,1.09C411.994,269.239,409.579,272.199,411.604,272.9z"/>
	<path fill="#E60000" d="M398.811,256.589c1.003,0.716,2.578-1.862,4.225-3.437c1.647-1.575,4.44-1.647,5.084-2.291
		c0.645-0.645,0.287-1.647-0.93-2.291c-1.217-0.645-5.084,0-5.084,0s-4.368,0.716-6.086,1.361c-1.719,0.645-0.573,2.568-0.573,2.568
		S397.809,255.873,398.811,256.589z"/>
	<path fill="#454545" d="M576.901,243.445h-5.628l-0.933-0.763h-1.865l-0.847,0.763l-0.955,0.034h-27.16l-0.659,0.659h0.922v1.187
		l-4.087,1.187v-3.296h-4.614c-2.109,0-1.846,6.592-1.846,6.592h-1.582c-0.923-3.296,0.791-5.669,0.791-5.669h-1.978
		c-1.846,2.637-6.988,1.978-6.988,1.978h-34.279c-0.791,3.692-5.933,4.878-7.647,6.328c-1.714,1.45-10.021,1.978-16.085,3.692
		c-6.065,1.714-8.306,13.053-8.306,13.053c1.713,1.187-0.264,6.592-0.132,10.152c0.132,3.56-5.406,12.262-6.592,13.976
		s-4.878,7.647-6.328,10.284c-1.45,2.637-3.164,8.174-8.306,10.02c-5.142,1.846-24.391-1.978-25.973-3.296
		c-1.582-1.319-3.428-4.483-2.505-6.197c0.923-1.714-2.9-2.769-6.065-5.01c-3.164-2.241-5.538-7.647-7.911-9.229
		c-2.373-1.582-3.428-0.791-3.691-0.132c-0.264,0.659-8.701,13.712-9.757,15.821c-1.055,2.11-0.132,4.615,2.769,9.097
		c2.9,4.483,6.328,2.505,10.284,2.373c3.955-0.132,5.274-1.186,9.097-1.186c3.823,0,16.744-0.396,18.195-0.396
		c1.45,0,4.219,0,17.799-0.659c13.58-0.659,14.256,6.09,15.216,9.176c0.96,3.086,3.086,24.548,4.114,29.21
		c0.636,2.885-4.067,4.871-5.007,7.481c-0.418,1.163,0.891,3.096,0.176,4.212c-0.29,0.452-2.737,2.077-2.665,1.57
		c-1.424,10.077-4.294,20.311-8.941,29.395c-4.396,8.592-11.193,17.015-10.956,27.184c0.268,11.401,12.225,10.235,20.535,11.274
		c9.327,1.166,12.069,1.166,16.253,3.909c4.182,2.743,5.759,8.228,2.674,11.039s-16.182,5.76-22.834,5.417
		c-6.651-0.343-20.845-0.48-23.245-0.206c-2.4,0.274-10.56,1.92-15.222,2.331c-4.663,0.411-12.548-1.029-13.302-1.988
		c-0.755-0.96-0.069-4.183-0.069-4.183c-0.617-1.234-0.617-4.731-0.206-6.651c0.412-1.92,0.412-3.908,2.4-8.091
		c4.051-8.522,7.719-17.447,8.514-26.939c0.226-2.704,1.603-5.278,1.88-7.639c0.346-2.958-0.592-2.87-1.247-5.603
		c-1.394-5.814,1.278-8.755,3.013-14.128c2.784-8.621-0.035-17.122,5.461-25.367c1.371-2.056-1.509-0.342-2.537,0.961
		c-1.028,1.303-6.857,6.445-9.051,7.474c-7.525,3.527-16.446,2.675-24.138,6.783c-6.817,3.641-10.108,5.264-8.466,13.46
		c2.581,12.88,10.291,26.264,10.978,39.315c0.539,10.233-8.642,15.392-17.327,18.131c-2.613,0.824-11.897,3.032-11.897,3.032
		c-2.359,0.558-11.716-6.875-14.712-7.736c-7.004-2.013-14.435-1.855-21.595-2.968c-11.361-1.768-21.99-8.749-33.882-5.387
		c-6.91,1.953-12.013,7.083-16.286,12.731c34.56,34.435,82.226,55.724,134.867,55.724c105.531,0,191.082-85.55,191.082-191.082
		C587.616,284.495,583.833,263.23,576.901,243.445z"/>
	<path fill="#FFFFFF" d="M277.953,429.274c11.893-3.362,22.521,3.62,33.882,5.387c7.16,1.114,14.591,0.956,21.595,2.968
		c2.996,0.861,12.353,8.294,14.712,7.736c0,0,9.284-2.207,11.897-3.032c8.685-2.739,17.866-7.899,17.327-18.131
		c-0.687-13.051-8.397-26.435-10.978-39.315c-1.643-8.196,1.648-9.819,8.466-13.46c7.692-4.108,16.613-3.256,24.138-6.783
		c2.194-1.029,8.023-6.171,9.051-7.474c1.028-1.303,3.908-3.017,2.537-0.961c-5.496,8.245-2.677,16.747-5.461,25.367
		c-1.735,5.373-4.407,8.314-3.013,14.128c0.655,2.734,1.593,2.645,1.247,5.603c-0.277,2.362-1.654,4.936-1.88,7.639
		c-0.796,9.492-4.463,18.417-8.514,26.939c-1.988,4.183-1.988,6.171-2.4,8.091c-0.412,1.92-0.412,5.417,0.206,6.651
		c0,0-0.686,3.223,0.069,4.183c0.754,0.96,8.639,2.4,13.302,1.988c4.662-0.412,12.822-2.057,15.222-2.331
		c2.4-0.274,16.594-0.137,23.245,0.206c6.651,0.343,19.748-2.605,22.834-5.417s1.508-8.297-2.674-11.039
		c-4.183-2.743-6.926-2.743-16.253-3.909c-8.31-1.039-20.267,0.127-20.535-11.274c-0.237-10.169,6.56-18.591,10.956-27.184
		c4.647-9.084,7.517-19.318,8.941-29.395c-0.072,0.507,2.375-1.118,2.665-1.57c0.715-1.116-0.594-3.05-0.176-4.212
		c0.939-2.61,5.643-4.597,5.007-7.481c-1.028-4.663-3.154-26.125-4.114-29.21c-0.96-3.086-1.636-9.835-15.216-9.176
		c-13.58,0.659-16.349,0.659-17.799,0.659c-1.451,0-14.371,0.396-18.195,0.396c-3.823,0-5.142,1.055-9.097,1.186
		c-3.956,0.132-7.383,2.11-10.284-2.373c-2.901-4.483-3.824-6.988-2.769-9.097c1.055-2.11,9.493-15.162,9.757-15.821
		c0.264-0.659,1.319-1.45,3.691,0.132c2.374,1.582,4.747,6.988,7.911,9.229c3.164,2.241,6.988,3.296,6.065,5.01
		c-0.923,1.714,0.923,4.878,2.505,6.197c1.582,1.318,20.831,5.142,25.973,3.296c5.142-1.846,6.856-7.383,8.306-10.02
		c1.45-2.637,5.142-8.57,6.328-10.284s6.724-10.416,6.592-13.976c-0.132-3.56,1.845-8.965,0.132-10.152
		c0,0,2.242-11.339,8.306-13.053c6.065-1.714,14.371-2.241,16.085-3.692c1.714-1.45,6.856-2.637,7.647-6.328h34.279
		c0,0,5.142,0.659,6.988-1.978h1.978c0,0-1.714,2.373-0.791,5.669h1.582c0,0-0.263-6.592,1.846-6.592h4.614v3.296l4.087-1.187
		v-1.187h-0.922l0.659-0.659h27.16l0.955-0.034l0.847-0.763h1.865l0.933,0.763h5.628c-0.547-1.561-1.114-3.113-1.7-4.655h-3.928
		l-0.933,0.763h-1.865l-0.847-0.763h-29.333v-10.512c0,0-0.17-2.374-2.119-2.798c-1.95-0.424-5.935,3.73-9.156,9.919
		c0,0-29.503-1.102-37.302-1.611c-7.799-0.509-30.774-0.678-30.774-0.678s0-0.848-3.306-1.78c-3.306-0.933-4.578-0.933-4.663-2.289
		c-0.085-1.356-1.018-3.196-3.73-3.59c-2.713-0.394-22.635-2.429-23.907-2.514c-1.272-0.085-8.987-0.848-9.58,1.187
		c-0.594,2.035,0.593,1.865,0,3.73c-0.594,1.865-2.883,5.087-2.883,5.087s-2.289-0.763-3.56,1.696
		c-1.272,2.459-2.12,3.985-2.968,3.985c-0.848,0-11.105,0.424-11.105,0.424s1.19-1.092,1.012-1.864
		c-0.178-0.772,0.297,0.059,0.653-0.059c0.356-0.119,1.069-1.365,1.128-2.077c0.06-0.712-0.297-3.62,1.365-3.501
		c1.662,0.119,4.629,0.534,3.977-1.662c-0.653-2.196-3.62-8.071-1.128-10.386c2.492-2.314,12.225-1.662,13.531-3.086
		c1.305-1.424,1.662-3.917-2.374-7.418c0,0-0.95-12.463-8.071-19.347c-7.122-6.884-18.279-12.7-32.403-8.368
		c-14.124,4.332-18.932,17.388-19.703,22.077c0,0,0.89,0.95,0.297,2.374c-0.593,1.424-2.255,5.994-2.611,7.834
		c-0.357,1.84-2.256,5.222-5.581,6.47c-11.837,4.435-25.755,4.956-36.193,12.663c-6.06,4.474-4.53,12.841-11.841,15.393
		c-4.201,1.466-14.056,1.016-15.935,6.235c-4.072,11.315-8.268,22.617-9.834,34.607c-0.766,5.859-4.013,11.164-5.77,16.774
		c-2.221,7.093-1.684,14.279-2.203,21.565c-0.06,0.831-0.89,0.653-0.594,1.543c0.297,0.89,0.415,1.602,0.534,4.51
		c0.119,2.908-0.059,17.863,0,20.712c0.06,2.849,1.602,5.638,4.154,6.172c2.552,0.534,3.561,0,3.561,0s0.297-2.611,2.493-2.611
		c2.194,0,9.129,0,9.139,0c3.129,0,2.179,6.87,2.435,8.726c0.628,4.547,2.444,7.961,5.95,10.976
		c6.873,5.912,16.819,7.645,21.586,16.018c1.076,1.89-0.238,7.495,0.106,9.959c-3.918,0.453-8.16-1.602-12.213-0.695
		c-3.976,0.89-6.469,0.929-8.842,0.969c-2.374,0.04-3.858-2.215-5.579-2.215c-1.721,0-2.849,0.178-3.145-0.712
		c-0.297-0.89-3.323-6.943-7.893-8.486c-4.57-1.543-8.555-3.561-12.348-2.314c-3.794,1.246-8.601,7.952-9.966,10.386
		c-1.365,2.433-3.323,5.104-2.967,6.943c0.356,1.84,1.246,3.383,0.534,4.748c-0.368,0.706-3.051,4.173-5.861,8.019
		c5.781,7.841,12.141,15.229,19.027,22.091C265.94,436.357,271.043,431.227,277.953,429.274z M533.51,229.239
		c1.744-1.282,1.077,1.026,1.077,1.026v2.359h1.744c0,0,0,1.385,0,3.18c0,1.795-1.436,1.949-1.436,1.949h-5.897
		C527.459,237.24,531.767,230.521,533.51,229.239z M429.101,227.373c0,0,13.82,0.931,16.541,2.291
		c2.721,1.361,3.151,4.153-7.913,3.724c-11.063-0.43-17.58,0.573-17.221-2.22C420.866,228.376,421.582,226.371,429.101,227.373z
		 M433.078,251.534c0,2.805-2.317,3.658-5.67,3.78c-3.354,0.122-4.207-2.561-3.476-4.024c0.732-1.463,1.952-3.861,7.257-3.007
		C431.188,248.283,433.078,248.729,433.078,251.534z M413.24,269.239c1.246,0,2.492,0.545,3.349-1.09
		c0.857-1.636,3.895-1.48,3.972-2.882c0.078-1.402-0.934-2.492,0.389-2.57c1.324-0.078,2.725-0.545,2.492-2.492
		c-0.233-1.947-2.389-3.899,0.247-3.899l6.296,0.004c0,0,3.093-0.234,3.093,2.726c0,2.96,0,10.125,0,10.125h2.982
		c0,0-0.857,2.259-2.181,3.271c-1.324,1.012-4.751,2.414-4.984,6.309c0,0-3.115,1.713-4.05,3.271s-1.791,3.038-2.103,1.869
		c-0.312-1.168-3.895-4.206-6.075-5.841c-2.181-1.636-3.037-4.439-5.063-5.14C409.579,272.199,411.994,269.239,413.24,269.239z
		 M396.019,249.93c1.718-0.644,6.086-1.361,6.086-1.361s3.867-0.645,5.084,0c1.217,0.644,1.575,1.647,0.93,2.291
		c-0.644,0.645-3.437,0.716-5.084,2.291c-1.647,1.575-3.222,4.153-4.225,3.437c-1.003-0.716-3.366-4.092-3.366-4.092
		S394.3,250.574,396.019,249.93z"/>
</g>
</svg>
